<?xml version="1.0" encoding="UTF-8"?>
<svg width="14px" height="15px" viewBox="0 0 14 15" version="1.1" xmlns="http://www.w3.org/2000/svg" xmlns:xlink="http://www.w3.org/1999/xlink">
    <!-- Generator: sketchtool 51 (57462) - http://www.bohemiancoding.com/sketch -->
    <title>5C4F2138-8AEA-46C5-9859-4017AA584173</title>
    <desc>Created with sketchtool.</desc>
    <defs></defs>
    <g id="HOME" stroke="none" stroke-width="1" fill="none" fill-rule="evenodd">
        <g transform="translate(-1389.000000, -9.000000)" fill="#FFFFFF" id="Group-29">
            <g>
                <g transform="translate(-2.000000, -137.000000)" id="Group-28">
                    <g>
                        <g id="Group-17" transform="translate(2.000000, 137.000000)">
                            <g id="HEDER_negre">
                                <g id="Group-2" transform="translate(433.000000, 9.000000)">
                                    <g id="social_icons" transform="translate(906.000000, 0.000000)">
                                        <path d="M57,1.35136364 C58.869,1.35136364 59.0904545,1.35886364 59.8286364,1.395 C60.5111364,1.42840909 60.8818182,1.55079545 61.1284091,1.65340909 C61.4551818,1.78943182 61.6884091,1.95204545 61.9334091,2.21420455 C62.1780909,2.47670455 62.3298636,2.72659091 62.4568182,3.07670455 C62.5525909,3.34090909 62.6668182,3.73806818 62.698,4.46931818 C62.7317273,5.26022727 62.7387273,5.4975 62.7387273,7.5 C62.7387273,9.5025 62.7317273,9.73977273 62.698,10.5306818 C62.6668182,11.2619318 62.5525909,11.6590909 62.4568182,11.9232955 C62.3298636,12.2734091 62.1780909,12.5232955 61.9334091,12.7857955 C61.6884091,13.0479545 61.4551818,13.2105682 61.1284091,13.3465909 C60.8818182,13.4495455 60.5111364,13.5715909 59.8286364,13.605 C59.0904545,13.6411364 58.8693182,13.6486364 57,13.6486364 C55.1306818,13.6486364 54.9095455,13.6411364 54.1713636,13.605 C53.4888636,13.5715909 53.1181818,13.4495455 52.8715909,13.3465909 C52.5448182,13.2105682 52.3115909,13.0479545 52.0665909,12.7857955 C51.8219091,12.5232955 51.6701364,12.2734091 51.5431818,11.9232955 C51.4470909,11.6590909 51.3331818,11.2619318 51.302,10.5306818 C51.2682727,9.73977273 51.2612727,9.5025 51.2612727,7.5 C51.2612727,5.4975 51.2682727,5.26022727 51.302,4.46931818 C51.3331818,3.73806818 51.4470909,3.34090909 51.5431818,3.07670455 C51.6701364,2.72659091 51.8219091,2.47670455 52.0665909,2.21420455 C52.3115909,1.95204545 52.5448182,1.78943182 52.8715909,1.65340909 C53.1181818,1.55079545 53.4888636,1.42840909 54.1713636,1.395 C54.9095455,1.35886364 55.131,1.35136364 57,1.35136364 L57,1.35136364 Z M57,0 C55.0988636,0 54.8605455,0.00852272727 54.1137727,0.045 C53.3689091,0.0814772727 52.8601364,0.208295455 52.4146818,0.39375 C51.9542727,0.585340909 51.5638636,0.841704545 51.1747273,1.25863636 C50.7855909,1.67590909 50.5463182,2.09386364 50.3675,2.58715909 C50.1944091,3.06443182 50.0760455,3.60954545 50.042,4.40761364 C50.0079545,5.20772727 50,5.46306818 50,7.5 C50,9.53693182 50.0079545,9.79227273 50.042,10.5923864 C50.0760455,11.3904545 50.1944091,11.9355682 50.3675,12.4128409 C50.5463182,12.9061364 50.7855909,13.3240909 51.1747273,13.7410227 C51.5638636,14.1582955 51.9542727,14.4146591 52.4146818,14.60625 C52.8601364,14.7917045 53.3689091,14.9185227 54.1137727,14.955 C54.8605455,14.9914773 55.0988636,15 57,15 C58.9011364,15 59.1394545,14.9914773 59.8859091,14.955 C60.6310909,14.9185227 61.1398636,14.7917045 61.5853182,14.60625 C62.0457273,14.4146591 62.4358182,14.1582955 62.8249545,13.7410227 C63.2144091,13.3240909 63.4536818,12.9061364 63.6325,12.4128409 C63.8055909,11.9355682 63.9239545,11.3904545 63.958,10.5923864 C63.9920455,9.79227273 64,9.53693182 64,7.5 C64,5.46306818 63.9920455,5.20772727 63.958,4.40761364 C63.9239545,3.60954545 63.8055909,3.06443182 63.6325,2.58715909 C63.4536818,2.09386364 63.2144091,1.67590909 62.8249545,1.25863636 C62.4358182,0.841704545 62.0457273,0.585340909 61.5853182,0.39375 C61.1398636,0.208295455 60.6310909,0.0814772727 59.8859091,0.045 C59.1394545,0.00852272727 58.9011364,0 57,0 L57,0 Z M57.014,3.66068182 C55.0272727,3.66068182 53.4166364,5.38636364 53.4166364,7.515 C53.4166364,9.64329545 55.0272727,11.3689773 57.014,11.3689773 C59.0004091,11.3689773 60.6110455,9.64329545 60.6110455,7.515 C60.6110455,5.38636364 59.0004091,3.66068182 57.014,3.66068182 L57.014,3.66068182 Z M57.014,10.0165909 C55.7244091,10.0165909 54.6788636,8.89670455 54.6788636,7.515 C54.6788636,6.13329545 55.7244091,5.01306818 57.014,5.01306818 C58.3035909,5.01306818 59.3488182,6.13329545 59.3488182,7.515 C59.3488182,8.89670455 58.3035909,10.0165909 57.014,10.0165909 L57.014,10.0165909 Z M61.5554091,3.48204545 C61.5554091,3.97534091 61.1825,4.37488636 60.7220909,4.37488636 C60.262,4.37488636 59.8887727,3.97534091 59.8887727,3.48204545 C59.8887727,2.98909091 60.262,2.58920455 60.7220909,2.58920455 C61.1825,2.58920455 61.5554091,2.98909091 61.5554091,3.48204545 L61.5554091,3.48204545 Z" id="Clip-19"></path>
                                    </g>
                                </g>
                            </g>
                        </g>
                    </g>
                </g>
            </g>
        </g>
    </g>
</svg>