<?xml version="1.0" encoding="UTF-8"?>
<svg width="13px" height="12px" viewBox="0 0 13 12" version="1.1" xmlns="http://www.w3.org/2000/svg" xmlns:xlink="http://www.w3.org/1999/xlink">
    <!-- Generator: sketchtool 51 (57462) - http://www.bohemiancoding.com/sketch -->
    <title>78F107E5-82B1-4BA4-893E-CABD13447905</title>
    <desc>Created with sketchtool.</desc>
    <defs>
        <path d="M33.4684762,3.897 C34.0194286,3.52266667 34.4422381,2.929 34.6406429,2.222 C34.1246667,2.56933333 33.5548333,2.82066667 32.946619,2.95666667 C32.4612857,2.36733333 31.7676429,2 31.0000238,2 C29.5273095,2 28.3340952,3.35633333 28.3340952,5.029 C28.3340952,5.26666667 28.3560714,5.498 28.401881,5.719 C26.186,5.59233333 24.2211429,4.38766667 22.9050476,2.55366667 C22.675381,3.00266667 22.5441429,3.52266667 22.5441429,4.07733333 C22.5441429,5.128 23.0149286,6.05533333 23.7305476,6.59933333 C23.2935,6.584 22.8821429,6.446 22.5218571,6.22066667 L22.5218571,6.258 C22.5218571,7.726 23.4405238,8.95066667 24.6622143,9.228 C24.4378095,9.299 24.202881,9.33466667 23.9586667,9.33466667 C23.7871905,9.33466667 23.619119,9.31633333 23.4575476,9.281 C23.7961667,10.484 24.781381,11.361 25.9489048,11.3843333 C25.0355,12.1973333 23.885619,12.681 22.636381,12.681 C22.4212619,12.681 22.2083095,12.668 22,12.6393333 C23.1805238,13.4983333 24.5820476,14 26.0885,14 C30.9947619,14 33.6761667,9.384 33.6761667,5.381 C33.6761667,5.24933333 33.674619,5.11833333 33.6693571,4.98933333 C34.1902857,4.562 34.6437381,4.028 35,3.42033333 C34.5214762,3.66133333 34.0073571,3.82433333 33.4684762,3.897 L33.4684762,3.897 Z" id="path-1"></path>
    </defs>
    <g id="HOME" stroke="none" stroke-width="1" fill="none" fill-rule="evenodd">
        <g transform="translate(-1361.000000, -11.000000)" id="Group-29">
            <g>
                <g transform="translate(-2.000000, -137.000000)" id="Group-28">
                    <g>
                        <g id="Group-17" transform="translate(2.000000, 137.000000)">
                            <g id="HEDER_negre">
                                <g id="Group-2" transform="translate(433.000000, 9.000000)">
                                    <g id="social_icons" transform="translate(906.000000, 0.000000)">
                                        <mask id="mask-2" fill="white">
                                            <use xlink:href="#path-1"></use>
                                        </mask>
                                        <use id="Mask" fill="#FFFFFF" xlink:href="#path-1"></use>
                                    </g>
                                </g>
                            </g>
                        </g>
                    </g>
                </g>
            </g>
        </g>
    </g>
</svg>